<?xml version="1.0" standalone="no"?><!DOCTYPE svg PUBLIC "-//W3C//DTD SVG 1.1//EN" "http://www.w3.org/Graphics/SVG/1.1/DTD/svg11.dtd"><svg t="1741495342912" class="icon" viewBox="0 0 1024 1024" version="1.1" xmlns="http://www.w3.org/2000/svg" p-id="16319" xmlns:xlink="http://www.w3.org/1999/xlink" width="200" height="200"><path d="M505.87 958.73l-421.19-475L241.65 277h530.07l156.73 206.68z m-393-476.2l393 441.3 393-441.3-138.7-182.4H253z" fill="#ffffff" p-id="16320"></path><path d="M815 449.24c-19.65 0-66.12 4.85-91.32 30.28s-30 77-30.51 94.32c0-17.8-3.47-69.35-31-97.56s-73-27.5-92.46-27.27a144.3 144.3 0 0 0 87.38-31.21c31.44-31.44 35.14-92.47 35.37-98.71 0 7.17-1.62 69.35 29.36 101 25.19 25.43 72.58 28.9 92.46 29.13z m-154-384a102 102 0 0 0 18.72 65.65 102.63 102.63 0 0 0 65.89 18.72 103.37 103.37 0 0 0-65 19.65 103.32 103.32 0 0 0-19.65 65 107.06 107.06 0 0 0-20.11-67 97.42 97.42 0 0 0-64.5-17.34 99.34 99.34 0 0 0 61.72-20.34 109.82 109.82 0 0 0 23.12-64.26zM882 231a69.3 69.3 0 0 0 12.48 44.85 69.35 69.35 0 0 0 44.85 12.72A69.36 69.36 0 0 0 895.16 302a69.37 69.37 0 0 0-13.41 44.16 72.16 72.16 0 0 0-13.63-46.24A66.41 66.41 0 0 0 824 288.11a69.32 69.32 0 0 0 42-13.87 74.62 74.62 0 0 0 15.72-43.69z" fill="#ffffff" p-id="16321"></path><path d="M505.87 845.46l-315.08-362.7L290 344.06h337.24a11.56 11.56 0 0 1 11.56 11.55 11.56 11.56 0 0 1-11.56 11.56H301.75l-81.6 113.74 285.72 329.64 277.41-310.92a11.31 11.31 0 0 1 16-0.16l0.17 0.16a11.11 11.11 0 0 1 0.5 15.69c-0.16 0.17-0.33 0.33-0.5 0.49z" fill="#ffffff" p-id="16322"></path></svg>