<?xml version="1.0" standalone="no"?><!DOCTYPE svg PUBLIC "-//W3C//DTD SVG 1.1//EN" "http://www.w3.org/Graphics/SVG/1.1/DTD/svg11.dtd"><svg t="1769423054544" class="icon" viewBox="0 0 1024 1024" version="1.1" xmlns="http://www.w3.org/2000/svg" p-id="2459" xmlns:xlink="http://www.w3.org/1999/xlink" width="200" height="200"><path d="M667.7 100.6H152L426.8 217v551.5h240.8v-222H708v259.7H426.8v153.1L64.2 806.1V63.9H708v297.3h-40.3V100.6z m291.9 352.7l-171 157.6v-102H507.4v-111h281.1V295.8l171.1 157.5z" fill="#727BA2" p-id="2460"></path><path d="M667.7 100.6H152L426.8 217v551.5h240.8v-222H708v259.7H426.8v153.1L64.2 806.1V63.9H708v297.3h-40.3V100.6z m291.9 352.7l-171 157.6v-102H507.4v-111h281.1V295.8l171.1 157.5z" fill="#727BA2" p-id="2461"></path></svg>